<?xml version="1.0" encoding="UTF-8" standalone="no" ?>
<!DOCTYPE svg PUBLIC "-//W3C//DTD SVG 1.1//EN" "http://www.w3.org/Graphics/SVG/1.1/DTD/svg11.dtd">
<svg xmlns="http://www.w3.org/2000/svg" xmlns:xlink="http://www.w3.org/1999/xlink" version="1.1" width="350" height="350" viewBox="0 0 350 350" xml:space="preserve">
<desc>Created with Fabric.js 1.7.22</desc>
<defs>
</defs>
<g id="icon" style="stroke: none; stroke-width: 1; stroke-dasharray: none; stroke-linecap: butt; stroke-linejoin: miter; stroke-miterlimit: 10; fill: none; fill-rule: nonzero; opacity: 1;" transform="translate(-1.9444444444444287 -1.9444444444444287) scale(3.89 3.89)" >
	<path d="M 77.421 40.236 H 2 c -1.104 0 -2 -0.896 -2 -2 s 0.896 -2 2 -2 h 75.421 c 4.73 0 8.579 -3.849 8.579 -8.579 s -3.849 -8.579 -8.579 -8.579 c -2.292 0 -4.446 0.893 -6.066 2.513 c -0.781 0.781 -2.047 0.781 -2.828 0 c -0.781 -0.781 -0.781 -2.047 0 -2.829 c 2.375 -2.376 5.534 -3.685 8.895 -3.685 C 84.357 15.078 90 20.721 90 27.657 S 84.357 40.236 77.421 40.236 z" style="stroke: none; stroke-width: 1; stroke-dasharray: none; stroke-linecap: butt; stroke-linejoin: miter; stroke-miterlimit: 10; fill: rgb(255,255,255); fill-rule: nonzero; opacity: 1;" transform=" matrix(1 0 0 1 0 0) " stroke-linecap="round" />
	<path d="M 77.421 74.923 c -3.36 0 -6.519 -1.309 -8.895 -3.685 c -0.781 -0.781 -0.781 -2.047 0 -2.828 s 2.047 -0.781 2.828 0 c 1.62 1.62 3.775 2.513 6.066 2.513 c 4.73 0 8.579 -3.849 8.579 -8.58 c 0 -4.73 -3.849 -8.579 -8.579 -8.579 H 2 c -1.104 0 -2 -0.896 -2 -2 s 0.896 -2 2 -2 h 75.421 C 84.357 49.764 90 55.406 90 62.343 S 84.357 74.923 77.421 74.923 z" style="stroke: none; stroke-width: 1; stroke-dasharray: none; stroke-linecap: butt; stroke-linejoin: miter; stroke-miterlimit: 10; fill: rgb(255,255,255); fill-rule: nonzero; opacity: 1;" transform=" matrix(1 0 0 1 0 0) " stroke-linecap="round" />
	<path d="M 50.442 27.142 H 2 c -1.104 0 -2 -0.896 -2 -2 s 0.896 -2 2 -2 h 48.442 c 4.73 0 8.579 -3.849 8.579 -8.579 c 0 -4.731 -3.849 -8.58 -8.579 -8.58 c -2.291 0 -4.446 0.893 -6.067 2.513 c -0.782 0.781 -2.047 0.78 -2.829 0 c -0.781 -0.781 -0.781 -2.047 0 -2.829 c 2.376 -2.375 5.536 -3.684 8.895 -3.684 c 6.937 0 12.579 5.643 12.579 12.58 C 63.021 21.499 57.379 27.142 50.442 27.142 z" style="stroke: none; stroke-width: 1; stroke-dasharray: none; stroke-linecap: butt; stroke-linejoin: miter; stroke-miterlimit: 10; fill: rgb(255,255,255); fill-rule: nonzero; opacity: 1;" transform=" matrix(1 0 0 1 0 0) " stroke-linecap="round" />
	<path d="M 50.442 88.017 c -3.36 0 -6.52 -1.309 -8.896 -3.685 c -0.781 -0.781 -0.781 -2.048 0 -2.828 c 0.781 -0.781 2.047 -0.781 2.829 0 c 1.62 1.62 3.774 2.513 6.066 2.513 c 4.73 0 8.579 -3.849 8.579 -8.579 s -3.849 -8.579 -8.579 -8.579 H 2 c -1.104 0 -2 -0.896 -2 -2 s 0.896 -2 2 -2 h 48.442 c 6.937 0 12.579 5.643 12.579 12.579 S 57.379 88.017 50.442 88.017 z" style="stroke: none; stroke-width: 1; stroke-dasharray: none; stroke-linecap: butt; stroke-linejoin: miter; stroke-miterlimit: 10; fill: rgb(255,255,255); fill-rule: nonzero; opacity: 1;" transform=" matrix(1 0 0 1 0 0) " stroke-linecap="round" />
</g>
</svg>