<?xml version="1.0" encoding="UTF-8" standalone="no"?>
<svg
   xmlns:dc="http://purl.org/dc/elements/1.1/"
   xmlns:cc="http://creativecommons.org/ns#"
   xmlns:rdf="http://www.w3.org/1999/02/22-rdf-syntax-ns#"
   xmlns:svg="http://www.w3.org/2000/svg"
   xmlns="http://www.w3.org/2000/svg"
   xmlns:sodipodi="http://sodipodi.sourceforge.net/DTD/sodipodi-0.dtd"
   xmlns:inkscape="http://www.inkscape.org/namespaces/inkscape"
   width="193.37793"
   height="203.40059"
   viewBox="0 0 51.164578 53.816407"
   version="1.1"
   id="svg584"
   inkscape:version="1.0.2 (e86c870879, 2021-01-15)"
   sodipodi:docname="goat-vector-inteiro.svg"
   inkscape:export-filename="/home/gilzoide/dados/prog/Godot-Projects/bode-espirratorio/src/Textures/goat-vector.png"
   inkscape:export-xdpi="96"
   inkscape:export-ydpi="96">
  <defs
     id="defs578">
    <clipPath
       clipPathUnits="userSpaceOnUse"
       id="clipPath547">
      <g
         inkscape:label="Clip"
         id="use549">
        <path
           d="m 3884.54,5211.3 c 0,0 20.62,168.15 163.92,241.6 237.26,121.63 402.93,-69.51 402.93,-69.51 0,0 -286.09,127.01 -421.88,-84.63 -33.23,-51.82 -40.37,-106.42 -40.37,-106.42 0,0 -4.28,-59.94 -58.72,-53.22 -60.44,7.47 -45.88,72.18 -45.88,72.18"
           style="fill:#56452e;fill-opacity:1;fill-rule:nonzero;stroke:none"
           id="path795" />
        <path
           d="M 4865.5,4506.91 V 4042.5 c 0,-23.19 19.21,-42 42.86,-42 h 61.39 c 0,0 54.88,0 54.88,80.63 0,80.65 0,425.78 0,425.78 H 4865.5"
           style="fill:#bcae95;fill-opacity:1;fill-rule:nonzero;stroke:none"
           id="path797" />
        <path
           d="m 4865.5,4088.76 v -46.26 c 0,-23.19 19.21,-42 42.86,-42 h 61.39 c 0,0 54.88,0 54.88,80.63 0,2.32 0,4.9 0,7.63 H 4865.5"
           style="fill:#231f20;fill-opacity:1;fill-rule:nonzero;stroke:none"
           id="path799" />
        <path
           d="M 4290.08,4506.91 V 4042.5 c 0,-23.19 19.24,-42 42.89,-42 h 61.38 c 0,0 54.89,0 54.89,80.63 0,80.65 0,425.78 0,425.78 h -159.16"
           style="fill:#bcae95;fill-opacity:1;fill-rule:nonzero;stroke:none"
           id="path801" />
        <path
           d="m 5019.18,4840.43 h -415.66 c -27.64,0 -54.22,11.63 -72.97,31.96 l -324.62,328.57 -228.23,-99.71 c 0,0 192.11,-543.36 206.21,-570.06 48.28,-91.47 107.4,-170.54 196.37,-170.54 h 26.84 v -319.89 c 0,-23.68 19.21,-42.87 42.89,-42.87 h 74.58 c 0,0 41.66,-0.54 41.66,42.87 0,48.22 0,204.46 0,319.89 h 418.98 V 4042.5 c 0,-23.19 19.18,-42 42.87,-42 h 73.19 c 0,0 43.06,-3.15 43.06,42 0,52.29 0.85,900.28 0.85,900.28 0,0 -62.4,20.8 -81.99,-62.39 -7.85,-33.4 -35.46,-39.15 -44.03,-39.96"
           style="fill:#dbccaf;fill-opacity:1;fill-rule:nonzero;stroke:none"
           id="path803" />
        <path
           d="m 3749.56,4877.97 c 34.23,-29.59 92.06,-28.73 150.26,-6.75 l 465.58,154.23 -153.71,167.84 c -111.25,122.75 -262.74,70.97 -335.49,-21.4 l -109.47,-140.02 c -27.61,-30.54 -68.87,-109.24 -17.17,-153.9"
           style="fill:#dbccaf;fill-opacity:1;fill-rule:nonzero;stroke:none"
           id="path805" />
        <path
           d="m 3967,5082.68 c 4.85,-12 -0.98,-25.64 -12.96,-30.45 -11.98,-4.84 -25.63,0.96 -30.48,12.96 -4.81,11.97 0.98,25.62 12.99,30.43 11.99,4.83 25.61,-0.94 30.45,-12.94"
           style="fill:#231f20;fill-opacity:1;fill-rule:nonzero;stroke:none"
           id="path807" />
        <path
           d="m 4290.08,4088.76 v -46.26 c 0,-23.19 19.24,-42 42.89,-42 h 61.38 c 0,0 54.89,0 54.89,80.63 0,2.32 0,4.9 0,7.63 h -159.16"
           style="fill:#231f20;fill-opacity:1;fill-rule:nonzero;stroke:none"
           id="path809" />
        <path
           d="m 4450.01,3997.89 h 74.58 c 0,0 41.66,-0.54 41.66,42.87 0,10.93 0,27.66 0,48 h -159.13 v -48 c 0,-23.68 19.21,-42.87 42.89,-42.87"
           style="fill:#514f4f;fill-opacity:1;fill-rule:nonzero;stroke:none"
           id="path811" />
        <path
           d="m 4985.23,4088.76 v -46.26 c 0,-23.19 19.18,-42 42.87,-42 h 73.19 c 0,0 43.06,-3.15 43.06,42 0,10.56 0,26.64 0,46.26 h -159.12"
           style="fill:#514f4f;fill-opacity:1;fill-rule:nonzero;stroke:none"
           id="path813" />
        <path
           d="m 3983.03,5211.3 c 0,0 20.62,168.15 163.92,241.6 237.23,121.63 402.89,-69.51 402.89,-69.51 0,0 -286.05,127.01 -421.84,-84.63 -33.26,-51.82 -40.37,-106.42 -40.37,-106.42 0,0 -4.3,-59.94 -58.72,-53.22 -60.47,7.47 -45.88,72.18 -45.88,72.18"
           style="fill:#7c6a4d;fill-opacity:1;fill-rule:nonzero;stroke:none"
           id="path815" />
        <path
           d="m 3970.79,4894.47 c 0,0 -63.62,-13.47 -63.62,-84.42 0,-15.29 -0.61,-59.94 -0.61,-59.94 0,0 -46.47,4.28 -71.56,40.36 -31.25,44.92 -10.41,87.47 -10.41,87.47 l 146.2,16.53"
           style="fill:#dbccaf;fill-opacity:1;fill-rule:nonzero;stroke:none"
           id="path817" />
        <path
           d="m 4307.29,4965.88 c 10.05,4.9 13.36,17.08 5.06,24.57 l -180.91,163.33 c -15.11,13.61 -38.28,12.75 -52.33,-1.96 -15.59,-16.42 -39.3,-44.82 -24.05,-101.21 21.42,-79.11 116.55,-150.47 252.23,-84.73"
           style="fill:#f4e9d7;fill-opacity:1;fill-rule:nonzero;stroke:none"
           id="path819" />
      </g>
    </clipPath>
  </defs>
  <sodipodi:namedview
     id="base"
     pagecolor="#ffffff"
     bordercolor="#666666"
     borderopacity="1.0"
     inkscape:pageopacity="0.0"
     inkscape:pageshadow="2"
     inkscape:zoom="4"
     inkscape:cx="67.333499"
     inkscape:cy="179.73595"
     inkscape:document-units="px"
     inkscape:current-layer="g881"
     inkscape:document-rotation="0"
     showgrid="true"
     inkscape:window-width="1920"
     inkscape:window-height="1003"
     inkscape:window-x="0"
     inkscape:window-y="0"
     inkscape:window-maximized="1"
     fit-margin-top="2"
     fit-margin-left="2"
     fit-margin-right="2"
     fit-margin-bottom="2"
     lock-margins="false"
     units="px"
     showguides="true"
     inkscape:guide-bbox="true"
     inkscape:lockguides="true">
    <inkscape:grid
       type="xygrid"
       id="grid42"
       originx="0.26458334"
       originy="0.26458334" />
  </sodipodi:namedview>
  <metadata
     id="metadata581">
    <rdf:RDF>
      <cc:Work
         rdf:about="">
        <dc:format>image/svg+xml</dc:format>
        <dc:type
           rdf:resource="http://purl.org/dc/dcmitype/StillImage" />
        <dc:title />
      </cc:Work>
    </rdf:RDF>
  </metadata>
  <g
     inkscape:label="Layer 1"
     inkscape:groupmode="layer"
     id="layer1"
     transform="translate(0.57169067,1.5639733)">
    <g
       id="g881"
       transform="matrix(-1,0,0,1,50.639045,-1.9521045)"
       inkscape:label="Tudo">
      <path
         d="m 6.208282,10.868951 c 0,0 0.7274277,-5.9319592 5.782733,-8.5231122 8.370006,-4.290836 14.214475,2.452159 14.214475,2.452159 0,0 -10.092619,-4.48063097 -14.882989,2.985558 -1.17228,1.828095 -1.4241635,3.7542612 -1.4241635,3.7542612 0,0 -0.1509889,2.11455 -2.0715111,1.877484 C 5.6946375,13.151776 6.208282,10.868951 6.208282,10.868951"
         style="fill:#56452e;fill-opacity:1;fill-rule:nonzero;stroke:none;stroke-width:0.0352778"
         id="ChifreTras"
         inkscape:label="ChifreTras" />
      <g
         id="g885"
         inkscape:label="PernaTrasFundo"
         transform="matrix(0.98975678,0,0,0.99227902,-0.31929064,0.39172783)">
        <path
           d="m 40.814371,35.718265 v 16.383352 c 0,0.818092 0.677686,1.481667 1.512005,1.481667 h 2.165703 c 0,0 1.936045,0 1.936045,-2.844447 0,-2.845153 0,-15.020572 0,-15.020572 h -5.613753"
           style="fill:#bcae95;fill-opacity:1;fill-rule:nonzero;stroke:none;stroke-width:0.0352778"
           id="path415" />
        <path
           d="m 40.814371,50.469667 v 1.63195 c 0,0.818092 0.677686,1.481667 1.512005,1.481667 h 2.165703 c 0,0 1.936045,0 1.936045,-2.844447 0,-0.08185 0,-0.172861 0,-0.26917 h -5.613753"
           style="fill:#231f20;fill-opacity:1;fill-rule:nonzero;stroke:none;stroke-width:0.0352778"
           id="path417" />
      </g>
      <g
         id="g889"
         inkscape:label="PernaFrenteFundo"
         transform="matrix(0.98957028,0,0,0.99227902,-0.66320694,0.38624576)">
        <path
           d="m 20.514832,35.718265 v 16.383352 c 0,0.818092 0.678744,1.481667 1.513064,1.481667 h 2.16535 c 0,0 1.936397,0 1.936397,-2.844447 0,-2.845153 0,-15.020572 0,-15.020572 h -5.614811"
           style="fill:#bcae95;fill-opacity:1;fill-rule:nonzero;stroke:none;stroke-width:0.0352778"
           id="path419" />
        <path
           d="m 20.514832,50.469667 v 1.63195 c 0,0.818092 0.678744,1.481667 1.513064,1.481667 h 2.16535 c 0,0 1.936397,0 1.936397,-2.844447 0,-0.08185 0,-0.172861 0,-0.26917 h -5.614811"
           style="fill:#231f20;fill-opacity:1;fill-rule:nonzero;stroke:none;stroke-width:0.0352778"
           id="path427" />
      </g>
      <path
         d="M 46.23586,23.95242 H 31.572299 c -0.975078,0 -1.912762,-0.410281 -2.57422,-1.127478 L 17.546207,11.233723 9.4947598,14.75127 c 0,0 6.7772132,19.168533 7.2746302,20.11045 1.703211,3.226858 3.788834,6.016272 6.927497,6.016272 h 0.946856 v 11.285009 c 0,0.835378 0.677686,1.512358 1.513064,1.512358 h 2.631017 c 0,0 1.469672,0.01905 1.469672,-1.512358 0,-1.701095 0,-7.212895 0,-11.285009 h 14.780683 v 11.223625 c 0,0.818092 0.676628,1.481667 1.512359,1.481667 h 2.58198 c 0,0 1.519061,0.111125 1.519061,-1.481667 0,-1.844675 0.02999,-31.759878 0.02999,-31.759878 0,0 -2.201333,-0.733777 -2.892425,2.200981 -0.27693,1.178278 -1.25095,1.381125 -1.55328,1.4097"
         style="fill:#dbccaf;fill-opacity:1;fill-rule:nonzero;stroke:none;stroke-width:0.0352778"
         id="path421"
         inkscape:label="CorpoInteiro" />
      <path
         d="m 1.4464875,22.628092 c 1.2075583,1.04387 3.2476722,1.013531 5.3008389,0.238125 L 23.171954,17.425326 17.749407,11.504303 C 13.824754,7.1739558 8.4805236,9.0006388 5.9140653,12.259248 l -3.8618584,4.939594 c -0.9740195,1.077384 -2.42958059,3.853745 -0.6057194,5.42925"
         style="fill:#dbccaf;fill-opacity:1;fill-rule:nonzero;stroke:none;stroke-width:0.0352778"
         id="path423"
         inkscape:label="Cabeca" />
      <path
         d="m 9.1172875,15.406378 c 0.1710972,0.423334 -0.034572,0.904523 -0.4572,1.074209 -0.4226278,0.170744 -0.9041694,-0.03387 -1.0752667,-0.4572 -0.1696861,-0.422275 0.034572,-0.903817 0.4582584,-1.073503 0.4229805,-0.170392 0.9034639,0.03316 1.0742083,0.456494"
         style="fill:#231f20;fill-opacity:1;fill-rule:nonzero;stroke:none;stroke-width:0.0352778"
         id="path425"
         inkscape:label="Olho" />
      <path
         d="m 26.156807,53.675359 h 2.631017 c 0,0 1.469672,0.01905 1.469672,-1.512358 0,-0.385586 0,-0.975784 0,-1.693334 h -5.613753 v 1.693334 c 0,0.835378 0.677686,1.512358 1.513064,1.512358"
         style="fill:#514f4f;fill-opacity:1;fill-rule:nonzero;stroke:none;stroke-width:0.0352778"
         id="path429"
         inkscape:label="PataFrenteFrente" />
      <path
         d="m 45.038179,50.469667 v 1.63195 c 0,0.818092 0.676628,1.481667 1.512359,1.481667 h 2.58198 c 0,0 1.519061,0.111125 1.519061,-1.481667 0,-0.372533 0,-0.9398 0,-1.63195 h -5.6134"
         style="fill:#514f4f;fill-opacity:1;fill-rule:nonzero;stroke:none;stroke-width:0.0352778"
         id="path431"
         inkscape:label="PataTrasFrente" />
      <path
         d="m 9.6827903,10.868951 c 0,0 0.7274277,-5.9319592 5.7827327,-8.5231122 8.368948,-4.290836 14.213064,2.452159 14.213064,2.452159 0,0 -10.091208,-4.48063097 -14.881577,2.985558 -1.173339,1.828095 -1.424164,3.7542612 -1.424164,3.7542612 0,0 -0.151695,2.11455 -2.071511,1.877484 -2.1332475,-0.263525 -1.6185447,-2.54635 -1.6185447,-2.54635"
         style="fill:#7c6a4d;fill-opacity:1;fill-rule:nonzero;stroke:none;stroke-width:0.0352778"
         id="path433"
         inkscape:label="ChifreFrente" />
      <path
         d="m 9.2509903,22.046009 c 0,0 -2.2443722,0.475192 -2.2443722,2.97815 0,0.539397 -0.02152,2.11455 -0.02152,2.11455 0,0 -1.6393583,-0.150989 -2.5244778,-1.423811 -1.10243,-1.584678 -0.3672411,-3.085747 -0.3672411,-3.085747 l 5.1576111,-0.583142"
         style="fill:#dbccaf;fill-opacity:1;fill-rule:nonzero;stroke:none;stroke-width:0.0352778"
         id="path435"
         inkscape:label="Barbicha" />
      <path
         d="m 21.121962,19.526823 c 0.354542,-0.172861 0.471312,-0.602545 0.178506,-0.866775 l -6.382103,-5.76192 c -0.533047,-0.48013 -1.350433,-0.449791 -1.846086,0.06915 -0.549981,0.579261 -1.386417,1.58115 -0.848431,3.570464 0.75565,2.790825 4.111625,5.308247 8.898114,2.989086"
         style="fill:#f4e9d7;fill-opacity:1;fill-rule:nonzero;stroke:none;stroke-width:0.0352778"
         id="path437"
         inkscape:label="Orelha" />
    </g>
  </g>
</svg>
