<?xml version="1.0" encoding="UTF-8" standalone="no"?>
<svg
   xmlns:dc="http://purl.org/dc/elements/1.1/"
   xmlns:cc="http://creativecommons.org/ns#"
   xmlns:rdf="http://www.w3.org/1999/02/22-rdf-syntax-ns#"
   xmlns:svg="http://www.w3.org/2000/svg"
   xmlns="http://www.w3.org/2000/svg"
   xmlns:sodipodi="http://sodipodi.sourceforge.net/DTD/sodipodi-0.dtd"
   xmlns:inkscape="http://www.inkscape.org/namespaces/inkscape"
   version="1.1"
   id="Layer_1"
   x="0px"
   y="0px"
   width="519.45093"
   height="411.83209"
   viewBox="0 0 519.45093 411.83209"
   xml:space="preserve"
   sodipodi:docname="Basketball-player-hoop.svg"
   inkscape:version="1.0.2 (e86c870879, 2021-01-15)"><metadata
   id="metadata342"><rdf:RDF><cc:Work
       rdf:about=""><dc:format>image/svg+xml</dc:format><dc:type
         rdf:resource="http://purl.org/dc/dcmitype/StillImage" /><dc:title></dc:title></cc:Work></rdf:RDF></metadata><defs
   id="defs340" /><sodipodi:namedview
   pagecolor="#ffffff"
   bordercolor="#666666"
   borderopacity="1"
   objecttolerance="10"
   gridtolerance="10"
   guidetolerance="10"
   inkscape:pageopacity="0"
   inkscape:pageshadow="2"
   inkscape:window-width="1920"
   inkscape:window-height="1003"
   id="namedview338"
   showgrid="false"
   fit-margin-left="2"
   fit-margin-top="2"
   fit-margin-right="2"
   fit-margin-bottom="2"
   inkscape:zoom="1.658"
   inkscape:cx="67.546265"
   inkscape:cy="192.98973"
   inkscape:window-x="0"
   inkscape:window-y="0"
   inkscape:window-maximized="1"
   inkscape:current-layer="Layer_1" />
<style
   type="text/css"
   id="style2">
	.st0{fill:url(#SVGID_1_);}
	.st1{fill:#854AA8;}
	.st2{fill:#F2F6EF;}
	.st3{fill:#FF5252;}
	.st4{fill:#FFA585;}
	.st5{fill:#FFBFAB;}
	.st6{fill:#E28061;}
	.st7{fill:#DEE2DC;}
	.st8{fill:#ED4848;}
	.st9{fill:#D33737;}
	.st10{fill:#DB7965;}
	.st11{fill:#BF3030;}
	.st12{fill:#C96861;}
	.st13{fill:#EF9178;}
	.st14{fill:#40475E;}
	.st15{fill:#202635;}
	.st16{fill:#FFFFFF;}
	.st17{fill:#FFC037;}
	.st18{fill:#634949;}
	.st19{fill:#3A2626;}
	.st20{fill:#9B3232;}
	.st21{fill:#B75571;}
	.st22{fill:#F7F2ED;}
	.st23{fill:#896767;}
	.st24{fill:#4C3535;}
	.st25{fill:#F27A4C;}
	.st26{fill:#DB6440;}
	.st27{fill:#BF5543;}
	.st28{fill:#495063;}
	.st29{fill:#D83A3A;}
	.st30{fill:#FF8383;}
</style>
<linearGradient
   id="SVGID_1_"
   gradientUnits="userSpaceOnUse"
   x1="2778.2869"
   y1="-7.0959001"
   x2="-17.9928"
   y2="2036.1084">
	<stop
   offset="0"
   style="stop-color:#AA6FB3"
   id="stop4" />
	<stop
   offset="0.008"
   style="stop-color:#AA6FB3"
   id="stop6" />
	<stop
   offset="1"
   style="stop-color:#9C60A6"
   id="stop8" />
</linearGradient>









































<g
   id="g331"
   transform="translate(-1804.5098,-499.6554)">
		<g
   id="g321">
			<g
   id="g267">
				<path
   class="st16"
   d="m 2145.4487,909.4875 c -3.6406,0 -6.593,-2.9523 -6.593,-6.593 0,-1.5991 0,-3.1853 0.012,-4.7598 0.082,-15.6361 0.6191,-31.2816 1.5967,-46.4891 0.3582,-5.5008 0.7937,-11.1901 1.2937,-16.9191 0.8848,-9.79 1.9314,-19.251 3.1125,-28.1419 1.0383,-7.7718 2.2124,-15.4651 3.4907,-22.8741 1.1497,-6.7288 2.4714,-13.6753 3.9287,-20.6312 2.3777,-11.3012 5.1355,-22.5439 8.198,-33.4243 0.803,-2.847 1.6167,-5.6782 2.4558,-8.4601 4.1406,-13.7355 8.8782,-27.22 14.0815,-40.08 1.3428,-3.3228 2.7605,-6.6971 4.3337,-10.3115 4.1089,-9.4493 8.6089,-18.8331 13.3733,-27.889 6.4968,-12.3864 13.7009,-24.575 21.4094,-36.2192 0.7974,-1.2028 1.6038,-2.3986 2.4092,-3.5827 6.97,-10.3162 14.6143,-20.6218 22.708,-30.6131 13.0396,-16.0668 27.6384,-31.8779 44.6372,-48.3422 0.1743,-0.1761 0.4248,-0.4255 0.6753,-0.6614 2.6479,-2.4969 6.8213,-2.3758 9.3193,0.2757 2.4983,2.6497 2.374,6.8224 -0.2749,9.3199 -0.157,0.1481 -0.3137,0.3061 -0.4719,0.4636 -16.6907,16.1681 -30.9419,31.5993 -43.6433,47.2495 -7.8513,9.6917 -15.2661,19.6882 -22.0359,29.7082 -0.79,1.1601 -1.5662,2.3137 -2.3318,3.4674 -7.4583,11.2661 -14.4338,23.0667 -20.7273,35.0667 -4.6179,8.7756 -8.9751,17.8632 -12.9553,27.0169 -1.5276,3.5084 -2.9006,6.7762 -4.2002,9.9937 -5.0547,12.4912 -9.6565,25.5923 -13.6821,38.9433 -0.8159,2.7083 -1.6086,5.4633 -2.3894,8.2307 -2.9805,10.5936 -5.6682,21.5483 -7.9849,32.5569 -1.4211,6.7908 -2.7134,13.5734 -3.8362,20.1535 -1.2524,7.2556 -2.4009,14.7827 -3.417,22.3836 -1.1553,8.7048 -2.1809,17.9808 -3.0483,27.5671 -0.4893,5.6132 -0.9177,11.2076 -1.27,16.6053 -0.96,14.9431 -1.488,30.3287 -1.5686,45.7213 -0.012,1.5557 -0.012,3.1092 -0.012,4.6755 1e-4,3.6406 -2.9522,6.5929 -6.5929,6.5929 z"
   id="path263" />
				<path
   class="st16"
   d="m 1983.0217,909.4875 c -3.6406,0 -6.593,-2.9523 -6.593,-6.593 0,-8.7118 -0.1357,-17.2492 -0.4038,-25.3745 -0.2048,-6.8541 -0.4963,-13.5383 -0.8674,-19.8878 -0.5057,-8.7001 -1.1449,-17.1661 -1.8999,-25.1661 0,-0.0398 -0.01,-0.0796 -0.011,-0.1206 -0.7749,-8.144 -1.6727,-16.1125 -2.6713,-23.6841 -0.8628,-6.5063 -1.8531,-13.1215 -2.9407,-19.6536 -1.7688,-10.6984 -3.8607,-21.3558 -6.2172,-31.6819 -0.7598,-3.3129 -1.5721,-6.703 -2.4138,-10.0686 -0.015,-0.0632 -0.03,-0.1276 -0.045,-0.192 -3.3878,-13.574 -7.3539,-26.9566 -11.7894,-39.7809 -0.5607,-1.647 -1.1238,-3.2408 -1.6974,-4.8341 -4.076,-11.3638 -8.6228,-22.5474 -13.5184,-33.2499 -4.3184,-9.4546 -9.0208,-18.7874 -13.9773,-27.7427 -1.6844,-3.0512 -3.2415,-5.7952 -4.7644,-8.3963 -6.8096,-11.6437 -14.339,-23.155 -22.3824,-34.2175 -7.8959,-10.8412 -16.5245,-21.5999 -25.6437,-31.9739 -0.059,-0.0667 -0.116,-0.1346 -0.171,-0.2031 -0.054,-0.0568 -0.1053,-0.1141 -0.1569,-0.1721 -8.7527,-9.9731 -18.3179,-20.0224 -29.2422,-30.722 l -2.2137,-2.1422 c -0.2341,-0.233 -0.391,-0.391 -0.5479,-0.5391 -2.649,-2.4976 -2.7732,-6.6703 -0.275,-9.3199 2.498,-2.6503 6.6714,-2.7726 9.3193,-0.2757 0.2505,0.2358 0.501,0.4852 0.7504,0.7351 l 2.1669,2.0955 c 11.1409,10.912 20.8945,21.1562 29.8358,31.3365 0.2059,0.2159 0.3969,0.4337 0.5759,0.6584 9.3334,10.627 18.1693,21.649 26.2642,32.7641 8.3021,11.4189 16.0739,23.2996 23.1012,35.3161 1.578,2.6954 3.1887,5.5353 4.9237,8.6779 5.1167,9.2427 9.9725,18.881 14.4303,28.6394 5.0477,11.0361 9.7361,22.5668 13.9327,34.2695 0.5983,1.657 1.187,3.3246 1.7631,5.0162 4.5701,13.2164 8.6638,27.0374 12.1545,41.0475 0.015,0.0609 0.029,0.1229 0.043,0.1838 0.8464,3.3913 1.6647,6.8049 2.4314,10.1505 2.4161,10.5895 4.5596,21.5091 6.3706,32.4626 1.1108,6.6679 2.1211,13.4271 3.005,20.0833 1.0243,7.7706 1.9443,15.937 2.7369,24.2788 0,0.0433 0.01,0.0854 0.011,0.1288 0.7656,8.1241 1.413,16.7107 1.9257,25.5244 0.3782,6.4724 0.6754,13.2831 0.8827,20.2413 0.2727,8.2495 0.4109,16.9332 0.4109,25.7889 0,3.6407 -2.9523,6.593 -6.593,6.593 z m -117.847,-342.6568 h 0.012 z m -0.3642,-0.4301 c 0,0.003 0,0.006 0.01,0.01 0,-0.003 0,-0.007 -0.01,-0.01 z"
   id="path265" />
			</g>
			<g
   id="g315">
				<g
   id="g289">
					<path
   class="st16"
   d="m 2246.3779,580.8461 c -0.6709,0 -1.3499,-0.1609 -1.9819,-0.4999 l -26.6399,-14.3086 c -0.068,-0.0316 -0.1335,-0.0644 -0.199,-0.0995 l -43.551,-23.3751 c -0.064,-0.0304 -0.1287,-0.0626 -0.1919,-0.0966 l -18.3765,-9.8777 c -2.0405,-1.0975 -2.8062,-3.6412 -1.7092,-5.6823 1.0981,-2.041 3.6418,-2.8048 5.6821,-1.7091 l 18.1987,9.7823 c 0.063,0.0298 0.1252,0.0615 0.1873,0.0942 l 43.5427,23.371 c 0.068,0.0316 0.1345,0.0649 0.2002,0.1 l 26.8271,14.4087 c 2.0417,1.0963 2.8071,3.6401 1.7104,5.6816 -0.7562,1.4097 -2.2042,2.211 -3.6991,2.211 z"
   id="path269" />
					<path
   class="st16"
   d="m 2221.6355,614.5303 c -0.6709,0 -1.3499,-0.1609 -1.9819,-0.4998 l -151.698,-81.4412 c -2.0417,-1.0969 -2.8074,-3.6407 -1.7104,-5.6816 1.0969,-2.0416 3.6406,-2.8043 5.6812,-1.7109 l 151.698,81.4412 c 2.0417,1.0963 2.8074,3.64 1.7104,5.6816 -0.7564,1.4095 -2.2044,2.2107 -3.6993,2.2107 z"
   id="path271" />
					<path
   class="st16"
   d="m 2200.563,650.1807 c -0.6707,0 -1.3496,-0.1604 -1.9819,-0.4999 L 1980.4863,532.5894 c -2.0416,-1.0957 -2.8083,-3.6395 -1.7126,-5.6805 1.0968,-2.0404 3.6406,-2.8095 5.681,-1.712 l 218.0974,117.0914 c 2.0415,1.0963 2.8071,3.6401 1.7102,5.681 -0.7564,1.41 -2.2044,2.2114 -3.6993,2.2114 z"
   id="path273" />
					<path
   class="st16"
   d="m 2183.1335,687.7841 c -0.6697,0 -1.3499,-0.1603 -1.9807,-0.4993 l -182.1005,-97.7679 c -0.064,-0.0305 -0.1277,-0.0626 -0.1909,-0.096 l -43.5508,-23.3874 c -0.064,-0.0305 -0.1277,-0.0626 -0.1908,-0.096 l -43.5415,-23.3827 c -0.068,-0.0316 -0.1335,-0.0649 -0.1991,-0.1001 l -18.3765,-9.8654 c -2.0416,-1.0957 -2.8083,-3.6395 -1.7126,-5.6805 1.0969,-2.0404 3.6418,-2.8095 5.681,-1.712 l 18.1917,9.7654 c 0.067,0.0316 0.1334,0.0649 0.199,0.1 l 43.5497,23.3868 c 0.064,0.0304 0.1276,0.0626 0.1908,0.0959 l 43.552,23.388 c 0.063,0.0298 0.1265,0.0621 0.1897,0.0954 l 182.2773,97.8627 c 2.0415,1.0963 2.8083,3.6395 1.7126,5.681 -0.7575,1.4102 -2.2043,2.2121 -3.7004,2.2121 z"
   id="path275" />
					<path
   class="st16"
   d="m 2169.2522,727.294 c -0.6697,0 -1.3496,-0.1604 -1.9807,-0.4993 L 1867.6189,565.9212 c -2.0322,-1.1133 -2.7767,-3.6629 -1.6635,-5.6951 1.1121,-2.0322 3.6605,-2.7773 5.6951,-1.6646 l 0.5034,0.2757 299.0861,160.5638 c 2.0415,1.0958 2.8083,3.6395 1.7126,5.6811 -0.7575,1.41 -2.2043,2.2119 -3.7004,2.2119 z"
   id="path277" />
					<path
   class="st16"
   d="m 2158.7388,768.6271 c -0.6707,0 -1.3496,-0.1615 -1.9819,-0.501 L 1921.7606,641.9617 c -2.0416,-1.0957 -2.8083,-3.6389 -1.7126,-5.6805 1.0957,-2.041 3.6383,-2.8083 5.681,-1.7132 l 234.9989,126.1667 c 2.0415,1.0957 2.8071,3.6395 1.7102,5.681 -0.7562,1.4095 -2.2045,2.2114 -3.6993,2.2114 z"
   id="path279" />
					<path
   class="st16"
   d="m 2151.4026,811.6489 c -0.6697,0 -1.3499,-0.1616 -1.9807,-0.4999 L 1949.6881,703.9101 c -2.0404,-1.0969 -2.806,-3.6406 -1.7091,-5.6816 1.098,-2.0421 3.6418,-2.8054 5.6823,-1.7097 l 199.7289,107.2365 c 2.0417,1.0969 2.8083,3.6395 1.7126,5.681 -0.7573,1.4107 -2.2053,2.2126 -3.7002,2.2126 z"
   id="path281" />
					<path
   class="st16"
   d="m 2147.0396,856.265 c -0.6707,0 -1.3496,-0.1615 -1.9819,-0.501 L 1999.0525,777.38 c -0.064,-0.0305 -0.1288,-0.0621 -0.1909,-0.096 l -33.0011,-17.7291 c -2.0416,-1.0969 -2.8071,-3.6395 -1.7103,-5.6811 1.098,-2.0416 3.6418,-2.8048 5.681,-1.7103 l 32.8232,17.6332 c 0.063,0.0304 0.1265,0.062 0.1897,0.0948 l 146.1846,78.4813 c 2.0415,1.0957 2.8071,3.6395 1.7102,5.681 -0.7575,1.4093 -2.2045,2.2112 -3.6993,2.2112 z"
   id="path283" />
					<path
   class="st16"
   d="m 2088.3254,871.7056 c -0.6694,0 -1.3496,-0.1616 -1.9805,-0.4999 L 1975.127,811.4955 c -2.0416,-1.0969 -2.8073,-3.6406 -1.7103,-5.681 1.098,-2.0416 3.6454,-2.806 5.681,-1.7103 l 111.2155,59.7079 c 2.0417,1.0969 2.8083,3.6395 1.7126,5.681 -0.7572,1.4106 -2.2052,2.2125 -3.7004,2.2125 z"
   id="path285" />
					<path
   class="st16"
   d="m 2044.5851,895.1884 c -0.6697,0 -1.3497,-0.1616 -1.9807,-0.4999 l -62.8511,-33.7457 c -2.0415,-1.0957 -2.8071,-3.6395 -1.7102,-5.6811 1.0957,-2.0416 3.6418,-2.806 5.681,-1.7103 l 62.8486,33.7433 c 2.0415,1.0969 2.8083,3.6395 1.7126,5.681 -0.7573,1.4108 -2.2041,2.2127 -3.7002,2.2127 z"
   id="path287" />
				</g>
				<g
   id="g313">
					<path
   class="st16"
   d="m 1840.2333,535.259 c -1.4949,0 -2.943,-0.8013 -3.6992,-2.2108 -1.0969,-2.0416 -0.3313,-4.5853 1.7103,-5.6816 l 4.0398,-2.1697 c 2.0427,-1.0957 4.5853,-0.3301 5.681,1.7109 1.0969,2.0416 0.3313,4.5853 -1.7102,5.6816 l -4.0399,2.1697 c -0.6321,0.3389 -1.3123,0.4999 -1.9818,0.4999 z"
   id="path291" />
					<path
   class="st16"
   d="m 1869.6383,566.4374 c -1.5009,0 -2.9512,-0.8066 -3.7063,-2.2236 -1.0898,-2.0451 -0.3148,-4.5859 1.7302,-5.6752 l 0.1791,-0.0954 43.5369,-23.381 c 0.067,-0.0357 0.1346,-0.0696 0.2036,-0.1018 l 18.1998,-9.7642 c 2.0404,-1.0963 4.5853,-0.3289 5.6798,1.7132 1.0957,2.0422 0.329,4.5854 -1.7137,5.6805 l -18.3882,9.8655 c -0.066,0.0357 -0.1323,0.0691 -0.2002,0.1006 l -43.552,23.388 c -0.6287,0.3348 -1.3041,0.4934 -1.969,0.4934 z"
   id="path293" />
					<path
   class="st16"
   d="m 1896.1659,599.1629 c -1.4961,0 -2.943,-0.8013 -3.7004,-2.2113 -1.0957,-2.0416 -0.3289,-4.5853 1.7126,-5.681 l 60.9418,-32.7255 c 0.064,-0.0339 0.1288,-0.0667 0.1931,-0.0971 l 61.9391,-33.2517 c 2.0404,-1.0963 4.5853,-0.3289 5.6799,1.7132 1.0957,2.0422 0.3289,4.5854 -1.7139,5.6805 l -62.1158,33.3477 c -0.064,0.034 -0.1288,0.0668 -0.1931,0.0972 l -60.7626,32.6284 c -0.631,0.3393 -1.3112,0.4996 -1.9807,0.4996 z"
   id="path295" />
					<path
   class="st16"
   d="m 1918.9053,633.9259 c -1.4949,0 -2.943,-0.8013 -3.6992,-2.2113 -1.0968,-2.041 -0.3301,-4.5848 1.7103,-5.6811 l 81.9451,-44.0051 c 0.064,-0.0339 0.1277,-0.0667 0.1932,-0.0972 l 105.6785,-56.7344 c 2.0427,-1.0934 4.5852,-0.3307 5.6809,1.7109 1.0969,2.0416 0.3313,4.5847 -1.7102,5.6816 L 2002.844,589.421 c -0.063,0.0339 -0.1276,0.0662 -0.192,0.0972 l -81.7648,43.9079 c -0.6322,0.3389 -1.3124,0.4998 -1.9819,0.4998 z"
   id="path297" />
					<path
   class="st16"
   d="m 1937.9537,670.6544 c -1.4961,5e-4 -2.9441,-0.8019 -3.7003,-2.2125 -1.0957,-2.0416 -0.329,-4.5847 1.7126,-5.6805 L 2173.8163,535.074 c 0.063,-0.0333 0.1265,-0.0656 0.1909,-0.096 l 18.208,-9.7811 c 2.0427,-1.0934 4.584,-0.3307 5.6809,1.7109 1.0969,2.041 0.3313,4.5847 -1.7102,5.6816 l -18.3882,9.8777 c -0.063,0.0339 -0.1289,0.0667 -0.1931,0.0977 l -237.6703,127.5903 c -0.6319,0.3389 -1.311,0.4993 -1.9806,0.4993 z"
   id="path299" />
					<path
   class="st16"
   d="m 1953.4049,709.3254 c -1.4973,0 -2.9453,-0.803 -3.7015,-2.2154 -1.0946,-2.0422 -0.3254,-4.5854 1.7173,-5.6793 L 2217.556,558.545 c 0.067,-0.0356 0.1345,-0.0696 0.2024,-0.1018 l 61.9287,-33.2464 c 2.0403,-1.0986 4.5852,-0.3295 5.6809,1.7114 1.0957,2.0416 0.3291,4.5854 -1.7126,5.6811 l -62.1169,33.3482 c -0.066,0.0357 -0.1335,0.0697 -0.2014,0.1019 l -265.9548,142.7885 c -0.6301,0.3377 -1.3091,0.4975 -1.9774,0.4975 z"
   id="path301" />
					<path
   class="st16"
   d="m 1965.4003,749.8479 c -2.3167,0 -4.1956,-1.873 -4.1956,-4.1897 0,-1.5452 0.85,-2.9781 2.2125,-3.7086 L 2222.0229,603.122 c 2.0439,-1.0916 4.5842,-0.322 5.6775,1.7208 1.0935,2.0433 0.3232,4.5853 -1.7207,5.6787 l -4.4602,2.3857 -253.9677,136.3459 c -0.6297,0.3782 -1.3649,0.5948 -2.1515,0.5948 z"
   id="path303" />
					<path
   class="st16"
   d="m 1974.1426,792.1216 c -1.4961,0 -2.943,-0.8019 -3.7004,-2.2125 -1.0957,-2.0416 -0.3289,-4.5853 1.7126,-5.6811 l 26.7079,-14.3367 c 0.063,-0.0339 0.1265,-0.0656 0.192,-0.0959 l 186.365,-100.0571 c 2.0405,-1.0957 4.5842,-0.329 5.6812,1.7126 1.0957,2.0416 0.3289,4.5854 -1.7126,5.6811 L 2002.844,777.285 c -0.064,0.034 -0.1288,0.0656 -0.1931,0.0972 l -26.5276,14.2396 c -0.631,0.3382 -1.3112,0.4998 -1.9807,0.4998 z"
   id="path305" />
					<path
   class="st16"
   d="m 1979.8213,836.0353 c -2.3168,0 -4.1956,-1.8718 -4.1956,-4.1885 v -0.0129 c 0,-1.5452 0.8499,-2.9664 2.2125,-3.6968 l 187.0114,-100.3919 c 2.0403,-1.0969 4.584,-0.3289 5.6809,1.7115 1.0957,2.0416 0.3291,4.5853 -1.7126,5.681 l -186.8391,100.2994 c -0.6299,0.3805 -1.3686,0.5982 -2.1575,0.5982 z"
   id="path307" />
					<path
   class="st16"
   d="m 1982.6179,881.499 c -1.495,0 -2.943,-0.8019 -3.6992,-2.2113 -1.0969,-2.0416 -0.3313,-4.5854 1.7103,-5.6811 l 172.2438,-92.4702 c 2.0427,-1.0969 4.5864,-0.3313 5.6812,1.7103 1.0967,2.0416 0.3313,4.5853 -1.7104,5.681 l -172.2438,92.4702 c -0.6321,0.3396 -1.3111,0.5011 -1.9819,0.5011 z"
   id="path309" />
					<path
   class="st16"
   d="m 2044.592,895.1884 c -1.496,0 -2.9429,-0.8019 -3.7003,-2.2125 -1.0957,-2.0416 -0.329,-4.5842 1.7126,-5.681 l 103.7374,-55.6926 c 2.0405,-1.0945 4.5854,-0.3289 5.6812,1.7126 1.0958,2.0415 0.3289,4.5853 -1.7126,5.681 l -103.7375,55.6926 c -0.631,0.3383 -1.3111,0.4999 -1.9808,0.4999 z"
   id="path311" />
				</g>
			</g>
			<path
   class="st16"
   d="M 2290.4824,533.0886 H 1837.988 c -2.3168,0 -4.1956,-1.8783 -4.1956,-4.1956 0,-2.3173 1.8788,-4.1955 4.1956,-4.1955 h 452.4944 c 2.3167,0 4.1956,1.8782 4.1956,4.1955 0,2.3173 -1.8789,4.1956 -4.1956,4.1956 z"
   id="path317" />
			<path
   class="st16"
   d="m 2109.1838,881.9181 c -0.6626,0 -1.3335,-0.1569 -1.9597,-0.4893 l -20.3782,-10.7885 c -2.0476,-1.084 -2.8296,-3.623 -1.7444,-5.6705 1.084,-2.0486 3.6233,-2.8306 5.6707,-1.7443 l 20.3782,10.7885 c 2.0476,1.084 2.8296,3.6231 1.7444,5.6705 -0.7527,1.4224 -2.2068,2.2336 -3.711,2.2336 z"
   id="path319" />
		</g>
		<path
   class="st3"
   d="m 2299.0518,547.4733 h -469.6331 c -12.6522,0 -22.9089,-10.2567 -22.9089,-22.9089 v -10e-5 c 0,-12.6523 10.2567,-22.9089 22.9089,-22.9089 h 469.6331 c 12.6521,0 22.9089,10.2567 22.9089,22.9089 v 10e-5 c 0,12.6522 -10.2568,22.9089 -22.9089,22.9089 z"
   id="path323" />
		<path
   class="st29"
   d="m 2299.0518,547.4733 h -469.6331 c -12.6522,0 -22.9089,-10.2567 -22.9089,-22.9089 v -10e-5 c 0,-12.6523 10.2567,-22.9089 22.9089,-22.9089 h 469.6331 c 12.6521,0 22.9089,10.2567 22.9089,22.9089 v 10e-5 c 0,12.6522 -10.2568,22.9089 -22.9089,22.9089 z"
   id="path325" />
		<path
   class="st3"
   d="m 2212.7437,547.4733 h -383.325 c -12.6522,0 -22.9089,-10.2567 -22.9089,-22.9089 v -10e-5 c 0,-12.6523 10.2567,-22.9089 22.9089,-22.9089 h 383.325 c 12.6523,0 22.9089,10.2567 22.9089,22.9089 v 10e-5 c 0,12.6522 -10.2566,22.9089 -22.9089,22.9089 z"
   id="path327" />
		<path
   class="st30"
   d="m 1951.4221,547.4733 h -56.0736 c -12.6523,0 -22.9089,-10.2567 -22.9089,-22.9089 v -10e-5 c 0,-12.6523 10.2566,-22.9089 22.9089,-22.9089 h 56.0736 c 12.6522,0 22.9089,10.2567 22.9089,22.9089 v 10e-5 c 1e-4,12.6522 -10.2567,22.9089 -22.9089,22.9089 z"
   id="path329" />
	</g>
</svg>
