<?xml version="1.0" encoding="UTF-8" standalone="no"?>
<svg
   xmlns:dc="http://purl.org/dc/elements/1.1/"
   xmlns:cc="http://creativecommons.org/ns#"
   xmlns:rdf="http://www.w3.org/1999/02/22-rdf-syntax-ns#"
   xmlns:svg="http://www.w3.org/2000/svg"
   xmlns="http://www.w3.org/2000/svg"
   xmlns:sodipodi="http://sodipodi.sourceforge.net/DTD/sodipodi-0.dtd"
   xmlns:inkscape="http://www.inkscape.org/namespaces/inkscape"
   version="1.1"
   id="Layer_1"
   x="0px"
   y="0px"
   viewBox="0 0 264.60001 264.60004"
   xml:space="preserve"
   sodipodi:docname="vector-basketball.svg"
   width="264.60001"
   height="264.60004"
   inkscape:version="1.0.2 (e86c870879, 2021-01-15)"><metadata
   id="metadata263"><rdf:RDF><cc:Work
       rdf:about=""><dc:format>image/svg+xml</dc:format><dc:type
         rdf:resource="http://purl.org/dc/dcmitype/StillImage" /><dc:title></dc:title></cc:Work></rdf:RDF></metadata><defs
   id="defs261" /><sodipodi:namedview
   pagecolor="#ffffff"
   bordercolor="#666666"
   borderopacity="1"
   objecttolerance="10"
   gridtolerance="10"
   guidetolerance="10"
   inkscape:pageopacity="0"
   inkscape:pageshadow="2"
   inkscape:window-width="1920"
   inkscape:window-height="1003"
   id="namedview259"
   showgrid="false"
   fit-margin-left="2"
   fit-margin-top="2"
   fit-margin-right="2"
   fit-margin-bottom="2"
   inkscape:zoom="1.1963092"
   inkscape:cx="126.44756"
   inkscape:cy="188.81027"
   inkscape:window-x="0"
   inkscape:window-y="0"
   inkscape:window-maximized="1"
   inkscape:current-layer="Layer_1" />
<style
   type="text/css"
   id="style2">
	.st0{fill:#6D6E70;}
	.st1{fill:#565759;}
	.st2{fill:#FFFFFF;}
	.st3{fill:#E87522;}
	.st4{fill:#DBDBDB;}
	.st5{fill:#DA5826;}
	.st6{fill:#BE1E2D;}
	.st7{fill:#CC3B29;}
	.st8{fill:#231F20;}
	.st9{fill:none;stroke:#231F20;stroke-miterlimit:10;}
	.st10{fill:#29282A;}
	.st11{fill:#121112;}
	.st12{fill:#404041;}
	.st13{fill:#B6B7B8;}
	.st14{fill:#929294;}
</style>




<g
   id="g120"
   transform="translate(-147.8,-134.49998)">
	<circle
   class="st3"
   cx="280.10001"
   cy="266.79999"
   r="130.3"
   id="circle92" />
	<path
   class="st5"
   d="m 410.4,266.8 c 0,-72 -58.3,-130.3 -130.3,-130.3 v 260.6 c 71.9,0 130.3,-58.3 130.3,-130.3 z"
   id="path94" />
	<g
   id="g98">
		<path
   class="st8"
   d="m 188.8,359.7 -4.1,-4 c 23.3,-23.9 36.2,-55.5 36.2,-88.9 0,-33.4 -12.8,-65 -36.2,-88.9 l 4.1,-4 c 24.4,25 37.8,58 37.8,92.9 0,34.9 -13.4,67.9 -37.8,92.9 z"
   id="path96" />
	</g>
	<g
   id="g102">
		<path
   class="st8"
   d="m 371.4,359.7 c -24.4,-25 -37.8,-58 -37.8,-92.9 0,-34.9 13.4,-67.9 37.8,-92.9 l 4.1,4 c -23.3,23.9 -36.2,55.5 -36.2,88.9 0,33.4 12.8,65 36.2,88.9 z"
   id="path100" />
	</g>
	<path
   class="st9"
   d="M 410.4,266.8"
   id="path104" />
	<g
   id="g108">
		<rect
   x="149.8"
   y="263.89999"
   class="st8"
   width="260.60001"
   height="5.6999998"
   id="rect106" />
	</g>
	<path
   class="st9"
   d="M 280.1,397.1"
   id="path110" />
	<path
   class="st9"
   d="m 410.4,266.8 h -73.9 c 0,35.4 14.1,67.4 37,90.9"
   id="path112" />
	<path
   class="st9"
   d="m 186.7,357.7 c 22.9,-23.5 37,-55.6 37,-90.9 h -73.9"
   id="path114" />
	<g
   id="g118">
		<rect
   x="277.20001"
   y="136.5"
   class="st8"
   width="5.6999998"
   height="260.60001"
   id="rect116" />
	</g>
</g>



</svg>
